<?xml version="1.0" standalone="no"?>
<!DOCTYPE svg PUBLIC "-//W3C//DTD SVG 20010904//EN"
 "http://www.w3.org/TR/2001/REC-SVG-20010904/DTD/svg10.dtd">
<svg version="1.0" xmlns="http://www.w3.org/2000/svg"
 width="400.000000pt" height="400.000000pt" viewBox="0 0 400.000000 400.000000"
 preserveAspectRatio="xMidYMid meet">
<metadata>
Created by potrace 1.15, written by Peter Selinger 2001-2017
</metadata>
<g transform="translate(0.000000,400.000000) scale(0.100000,-0.100000)"
fill="#000000" stroke="none">
<path d="M1901 3792 c-13 -12 -31 -66 -55 -164 -124 -502 -293 -825 -691
-1317 -173 -214 -197 -247 -246 -343 -53 -104 -87 -227 -97 -351 -26 -322 67
-589 285 -818 201 -210 429 -321 721 -350 356 -35 701 93 949 354 193 204 284
427 284 702 1 182 -26 305 -99 450 -45 91 -69 126 -228 330 -250 322 -357 483
-475 710 -106 205 -206 483 -255 703 -9 43 -21 82 -26 88 -15 20 -47 23 -67 6z
m-232 -1652 c74 -34 118 -76 153 -148 108 -219 -49 -464 -288 -450 -174 11
-292 149 -282 328 7 122 66 211 173 262 76 35 175 39 244 8z m756 -1 c75 -28
146 -99 175 -176 30 -79 25 -186 -13 -259 -74 -144 -246 -208 -388 -142 -78
36 -114 71 -151 146 -29 58 -33 76 -32 142 0 88 22 146 80 209 84 94 210 124
329 80z"/>
<path d="M1635 1989 c-53 -15 -88 -61 -92 -121 -5 -64 18 -106 70 -131 46 -22
85 -21 124 3 64 39 85 105 55 174 -28 62 -93 93 -157 75z"/>
<path d="M2366 1970 c-60 -38 -80 -112 -50 -176 46 -97 199 -97 240 1 40 97
-20 195 -121 195 -23 0 -53 -8 -69 -20z"/>
</g>
</svg>
