<?xml version="1.0" standalone="no"?>
<!DOCTYPE svg PUBLIC "-//W3C//DTD SVG 20010904//EN"
 "http://www.w3.org/TR/2001/REC-SVG-20010904/DTD/svg10.dtd">
<svg version="1.0" xmlns="http://www.w3.org/2000/svg"
 width="2000.000000pt" height="2102.000000pt" viewBox="0 0 2000.000000 2102.000000"
 preserveAspectRatio="xMidYMid meet">
<metadata>
Created by potrace 1.15, written by Peter Selinger 2001-2017
</metadata>
<g transform="translate(0.000000,2102.000000) scale(0.100000,-0.100000)"
fill="#000000" stroke="none">
<path d="M9637 19760 c-3 -8 -29 -127 -57 -265 -361 -1761 -899 -3258 -1665
-4630 -565 -1014 -1150 -1851 -2457 -3523 -125 -159 -270 -352 -321 -429 -461
-681 -747 -1489 -842 -2378 -23 -211 -31 -742 -16 -958 53 -719 239 -1403 551
-2027 283 -565 616 -1020 1072 -1465 746 -728 1691 -1223 2713 -1419 369 -70
599 -91 1025 -91 363 0 488 8 789 51 1003 143 1951 577 2746 1258 957 820
1614 2006 1801 3252 116 779 69 1529 -142 2268 -91 317 -188 564 -349 891
-187 377 -322 591 -680 1070 -1039 1394 -1425 1937 -1860 2620 -1086 1704
-1767 3376 -2230 5470 -75 342 -71 325 -78 305z"/>
</g>
</svg>
