<?xml version="1.0" standalone="no"?>
<!DOCTYPE svg PUBLIC "-//W3C//DTD SVG 20010904//EN"
 "http://www.w3.org/TR/2001/REC-SVG-20010904/DTD/svg10.dtd">
<svg version="1.0" xmlns="http://www.w3.org/2000/svg"
 width="400.000000pt" height="400.000000pt" viewBox="0 0 400.000000 400.000000"
 preserveAspectRatio="xMidYMid meet">
<metadata>
Created by potrace 1.15, written by Peter Selinger 2001-2017
</metadata>
<g transform="translate(0.000000,400.000000) scale(0.100000,-0.100000)"
fill="#000000" stroke="none">
<path d="M1901 3792 c-13 -12 -31 -66 -55 -164 -124 -502 -293 -825 -691
-1317 -173 -214 -197 -247 -246 -343 -53 -104 -87 -227 -97 -351 -26 -322 67
-589 285 -818 201 -210 429 -321 721 -350 356 -35 701 93 949 354 193 204 284
427 284 702 1 182 -26 305 -99 450 -45 91 -69 126 -228 330 -250 322 -357 483
-475 710 -106 205 -206 483 -255 703 -9 43 -21 82 -26 88 -15 20 -47 23 -67 6z
m64 -208 c128 -486 304 -808 750 -1375 155 -197 221 -320 262 -485 24 -99 24
-314 -1 -419 -94 -408 -428 -716 -857 -791 -69 -12 -131 -15 -234 -11 -178 6
-297 35 -450 112 -279 138 -468 370 -546 670 -32 125 -33 330 -1 458 45 181
96 273 270 485 316 384 488 656 611 966 60 153 133 391 146 480 4 26 9 45 12
43 2 -3 19 -62 38 -133z"/>
<path d="M1448 2197 c-102 -38 -176 -106 -220 -203 -18 -40 -22 -67 -22 -144
0 -85 3 -102 29 -155 36 -73 96 -135 167 -172 47 -24 64 -27 148 -28 77 0 104
4 142 22 71 33 144 106 180 182 28 58 32 76 32 151 0 74 -4 93 -30 150 -37 79
-97 140 -172 177 -46 22 -73 29 -137 31 -49 1 -94 -3 -117 -11z m221 -57 c74
-34 118 -76 153 -148 108 -219 -49 -464 -288 -450 -174 11 -292 149 -282 328
7 122 66 211 173 262 76 35 175 39 244 8z"/>
<path d="M1635 1989 c-53 -15 -88 -61 -92 -121 -5 -64 18 -106 70 -131 46 -22
85 -21 124 3 64 39 85 105 55 174 -28 62 -93 93 -157 75z"/>
<path d="M2223 2196 c-161 -53 -255 -182 -256 -351 -1 -70 3 -89 30 -147 39
-82 96 -141 176 -179 52 -24 75 -29 139 -29 146 0 256 68 320 198 30 61 33 74
33 162 -1 83 -4 102 -29 152 -34 72 -100 139 -170 173 -66 32 -179 42 -243 21z
m202 -57 c75 -28 146 -99 175 -176 30 -79 25 -186 -13 -259 -74 -144 -246
-208 -388 -142 -78 36 -114 71 -151 146 -29 58 -33 76 -32 142 0 88 22 146 80
209 84 94 210 124 329 80z"/>
<path d="M2366 1970 c-60 -38 -80 -112 -50 -176 46 -97 199 -97 240 1 40 97
-20 195 -121 195 -23 0 -53 -8 -69 -20z"/>
</g>
</svg>
