<?xml version="1.0" standalone="no"?>
<!DOCTYPE svg PUBLIC "-//W3C//DTD SVG 20010904//EN"
 "http://www.w3.org/TR/2001/REC-SVG-20010904/DTD/svg10.dtd">
<svg version="1.0" xmlns="http://www.w3.org/2000/svg"
 width="2000.000000pt" height="2102.000000pt" viewBox="0 0 2000.000000 2102.000000"
 preserveAspectRatio="xMidYMid meet">
<metadata>
Created by potrace 1.15, written by Peter Selinger 2001-2017
</metadata>
<g transform="translate(0.000000,2102.000000) scale(0.100000,-0.100000)"
fill="#000000">
<path d="M9633 19678 c-6 -7 -25 -83 -43 -168 -493 -2390 -1263 -4208 -2598
-6135 -379 -546 -740 -1027 -1578 -2100 -289 -370 -459 -637 -620 -970 -302
-627 -470 -1302 -515 -2070 -15 -243 -15 -295 0 -550 29 -504 111 -946 258
-1400 375 -1155 1119 -2135 2133 -2812 718 -479 1533 -775 2385 -867 135 -15
523 -40 595 -39 259 4 701 47 953 93 1010 183 1904 629 2697 1344 163 147 147
131 301 302 620 683 1028 1425 1253 2275 101 380 145 675 171 1120 12 221 12
288 0 500 -21 367 -50 591 -116 884 -148 658 -403 1251 -783 1819 -66 100
-279 393 -472 651 -588 789 -835 1126 -1131 1550 -1296 1854 -2068 3477 -2602
5475 -75 277 -170 669 -225 929 -20 91 -40 169 -44 173 -5 5 -13 3 -19 -4z"/>
</g>
</svg>
