<?xml version="1.0" standalone="no"?>
<!DOCTYPE svg PUBLIC "-//W3C//DTD SVG 20010904//EN"
 "http://www.w3.org/TR/2001/REC-SVG-20010904/DTD/svg10.dtd">
<svg version="1.0" xmlns="http://www.w3.org/2000/svg"
 width="2000.000000pt" height="2102.000000pt" viewBox="0 0 2000.000000 2102.000000"
 preserveAspectRatio="xMidYMid meet">
<metadata>
Created by potrace 1.15, written by Peter Selinger 2001-2017
</metadata>
<g transform="translate(0.000000,2102.000000) scale(0.100000,-0.100000)"
fill="#000000" stroke="none">
<path d="M9573 19993 c-50 -4 -57 -8 -116 -68 l-64 -65 -32 -162 c-283 -1432
-722 -2781 -1278 -3931 -602 -1244 -1258 -2248 -2558 -3917 -532 -683 -550
-707 -649 -855 -432 -647 -717 -1448 -810 -2275 -14 -125 -46 -606 -50 -745
-1 -77 21 -452 40 -665 70 -780 343 -1607 751 -2269 208 -337 396 -584 682
-896 180 -198 182 -199 367 -368 344 -313 652 -539 1034 -758 597 -342 1325
-577 2024 -654 131 -14 670 -50 736 -49 98 2 602 37 720 50 843 92 1677 397
2380 869 138 93 347 248 450 334 134 112 424 374 476 431 438 470 689 806 942
1259 324 579 558 1329 627 2001 18 183 38 539 38 690 0 152 -20 508 -39 690
-65 640 -283 1345 -592 1915 -180 333 -283 486 -740 1100 -1060 1422 -1500
2055 -1979 2850 -847 1405 -1447 2871 -1858 4540 -63 255 -97 403 -177 774
-10 44 -21 63 -71 112 -50 50 -64 59 -95 59 -20 0 -53 2 -72 4 -19 2 -59 1
-87 -1z m122 -538 c51 -237 172 -728 244 -990 535 -1951 1292 -3531 2564
-5350 296 -424 543 -761 1131 -1550 193 -258 406 -551 472 -651 649 -971 959
-2066 906 -3197 -12 -251 -29 -416 -62 -623 -153 -951 -570 -1856 -1196 -2599
-331 -393 -690 -713 -1124 -1002 -889 -593 -1922 -906 -2990 -905 -1076 1
-2092 311 -2990 912 -834 559 -1500 1355 -1909 2281 -394 895 -535 1885 -410
2889 71 574 234 1129 478 1635 173 358 333 606 661 1025 1057 1349 1559 2042
2044 2819 1012 1620 1652 3255 2081 5316 19 94 38 181 41 195 l7 25 7 -30 c5
-16 24 -106 45 -200z"/>
</g>
</svg>
