<?xml version="1.0" standalone="no"?>
<!DOCTYPE svg PUBLIC "-//W3C//DTD SVG 20010904//EN"
 "http://www.w3.org/TR/2001/REC-SVG-20010904/DTD/svg10.dtd">
<svg version="1.0" xmlns="http://www.w3.org/2000/svg"
 width="2000.000000pt" height="2102.000000pt" viewBox="0 0 2000.000000 2102.000000"
 preserveAspectRatio="xMidYMid meet">
<metadata>
Created by potrace 1.15, written by Peter Selinger 2001-2017
</metadata>
<g transform="translate(0.000000,2102.000000) scale(0.100000,-0.100000)"
fill="#000000" stroke="none">
<path d="M9573 19993 c-50 -4 -57 -8 -116 -68 l-64 -65 -32 -162 c-283 -1432
-722 -2781 -1278 -3931 -602 -1244 -1258 -2248 -2558 -3917 -532 -683 -550
-707 -649 -855 -432 -647 -717 -1448 -810 -2275 -14 -125 -46 -606 -50 -745
-1 -77 21 -452 40 -665 70 -780 343 -1607 751 -2269 208 -337 396 -584 682
-896 180 -198 182 -199 367 -368 344 -313 652 -539 1034 -758 597 -342 1325
-577 2024 -654 131 -14 670 -50 736 -49 98 2 602 37 720 50 843 92 1677 397
2380 869 138 93 347 248 450 334 134 112 424 374 476 431 438 470 689 806 942
1259 324 579 558 1329 627 2001 18 183 38 539 38 690 0 152 -20 508 -39 690
-65 640 -283 1345 -592 1915 -180 333 -283 486 -740 1100 -1060 1422 -1500
2055 -1979 2850 -847 1405 -1447 2871 -1858 4540 -63 255 -97 403 -177 774
-10 44 -21 63 -71 112 -50 50 -64 59 -95 59 -20 0 -53 2 -72 4 -19 2 -59 1
-87 -1z m122 -518 c49 -230 180 -761 254 -1030 527 -1924 1291 -3519 2544
-5310 297 -424 544 -762 1131 -1550 193 -258 410 -558 482 -666 261 -391 442
-743 596 -1164 186 -506 279 -962 314 -1540 42 -714 -84 -1501 -351 -2188
-209 -539 -507 -1050 -864 -1482 -80 -96 -299 -343 -351 -395 -53 -52 -289
-261 -385 -341 -758 -626 -1745 -1056 -2707 -1178 -202 -26 -707 -64 -745 -56
-10 3 -110 9 -223 15 -771 40 -1449 215 -2120 546 -843 415 -1556 1041 -2075
1819 -300 451 -483 825 -648 1330 -156 475 -228 875 -261 1445 -14 241 -7 492
25 805 61 613 232 1228 493 1770 166 343 346 623 662 1025 1499 1910 2158
2889 2767 4105 607 1214 1035 2487 1362 4050 19 94 38 177 41 185 10 24 19 -7
59 -195z"/>
</g>
</svg>
